<?xml version="1.0" encoding="UTF-8"?>
<!DOCTYPE svg PUBLIC "-//W3C//DTD SVG 1.1//EN" "http://www.w3.org/Graphics/SVG/1.1/DTD/svg11.dtd">
<!-- Creator: CorelDRAW 2018 (64-Bit) -->
<svg xmlns="http://www.w3.org/2000/svg" xml:space="preserve" width="8.26772in" height="11.6929in" version="1.1" style="shape-rendering:geometricPrecision; text-rendering:geometricPrecision; image-rendering:optimizeQuality; fill-rule:evenodd; clip-rule:evenodd"
viewBox="0 0 8267.72 11692.91"
 xmlns:xlink="http://www.w3.org/1999/xlink">
 <defs>
  <style type="text/css">
   <![CDATA[
    .fil0 {fill:black}
    .fil4 {fill:#60AA00}
    .fil1 {fill:#E00728}
    .fil3 {fill:#FF056D}
    .fil5 {fill:#FFDE00}
    .fil2 {fill:white}
   ]]>
  </style>
 </defs>
 <g id="Layer_x0020_1">
  <metadata id="CorelCorpID_0Corel-Layer"/>
  <g id="_2627862848896">
   <path class="fil0" d="M1981.91 8230.85c-243.34,-52.09 -484.14,-224.16 -601.81,-545.17 -43.85,-119.61 -66.24,-251.31 -66.44,-383.26 -0.19,-131.07 21.39,-261.72 65.45,-380.44 116.86,-314.84 357.43,-469.98 598.93,-503.17l2.91 -0.39c-188.76,-101.99 -355.03,-224.37 -486.18,-370.44 -171.26,86.05 -341.13,177.88 -509.97,298.33 -168.16,119.97 -354.17,26.77 -89.83,-166.18 155.34,-113.38 312.09,-201.88 479.68,-278.17 -111.01,-147.28 -203.46,-308.33 -275.91,-479.2 -181.11,46.65 -369.37,78.45 -539.35,97.63 -147.1,16.6 -121.04,-97.78 -48.67,-126.7 167.75,-66.92 343.5,-114.12 521.48,-147.21 -54.57,-164.12 -91.46,-334.98 -110.24,-509.46 -204.04,5.19 -408.54,17.72 -610.2,44.16 -175.98,23.08 -131.46,-133.69 10.2,-165.02 184.11,-40.7 385.39,-59.45 587.03,-62.02 -16.86,-485.62 100.61,-990.23 330.2,-1412.22 -184.8,-557.33 -169.8,-1267.7 305.46,-1671.14 23.57,-19.98 44.12,-21.89 71.5,-22.9 459.13,-17.5 891.9,182.49 1290.66,395.76 328.25,-57.58 636.27,-88.57 967.67,-111.43 208.58,-470.36 686.22,-966.08 1240.35,-625.45 216.15,132.86 386.79,365.19 505,590.87 350.67,-194.23 734.28,-278.2 1131.36,-272.66 30.9,0.52 58.2,15.94 75.45,39.56 142.93,174.51 250.99,506.35 280.9,731.12 290.25,-8.55 580.19,98.92 721.65,382.04 101.37,202.89 95.9,439.26 32.95,655.04 -89.69,307.48 -313.02,608.29 -556.51,807.83 20.57,109.86 34.11,221.09 40.28,332.92 200.98,-16.63 403.09,-17.1 590.06,5.89 143.89,17.71 202.27,169.56 24.97,163.33 -203.18,-7.14 -407.91,-0.15 -611.54,14.12 -3.04,175.52 -24.44,349.16 -64.05,517.78 180.2,16 359.41,46.28 532.44,96.97 74.67,21.88 110.88,133.3 -37.07,130.75 -170.98,-2.92 -361.28,-16.65 -545.81,-45.88 -56.8,177.04 -134.42,346.21 -231.72,503.45 173.72,59.98 337.74,133.16 502.59,231.3 280.52,166.97 103.68,277.48 -74.53,174 -178.93,-103.84 -356.3,-179.14 -534.56,-248.49 -156.3,210.1 -356.19,375.82 -581.36,506.12 232.74,40.39 460.57,195.47 573.29,499.17 44.06,118.72 65.65,249.38 65.46,380.44 -0.2,131.95 -22.59,263.64 -66.44,383.26 -117.67,321.02 -358.47,493.08 -601.81,545.17 46.33,280.28 70.8,549.62 65.59,801.2 -6.56,316.46 -60.27,604.13 -176.52,849.48 -19.87,41.94 -42,82.33 -66.19,121.08 -183.97,294.81 -495.87,515.47 -843.64,623 -348.04,107.62 -733.56,102.49 -1064.56,-54.34 -27.4,-12.98 -54.31,-26.92 -80.66,-41.82 -26.89,15.23 -54.31,29.45 -82.21,42.67 -329.15,155.94 -707.27,161.01 -1048.22,53.85 -340.54,-107.04 -645.42,-326.54 -828.44,-619.83 -24.87,-39.85 -47.65,-81.42 -68.11,-124.61 -116.25,-245.34 -169.96,-533.02 -176.52,-849.48 -5.22,-251.58 19.26,-520.93 65.59,-801.2z"/>
   <path class="fil1" d="M2841.82 6702.66c-61.91,27.67 -121.35,60.8 -177.27,99.17 40.83,129.37 25.13,257.85 -20.9,382.65 -35.28,95.63 -24.66,146.33 18.65,236.37 189.17,393.54 -2.65,754.58 -404.82,818.34 50.72,254.59 140.06,510.8 258.19,741.23 241.35,470.85 728.21,1039.33 1310.9,803.04 197.88,-80.25 416.7,-80.25 614.58,0 595.35,241.43 1090.76,-355.67 1330.02,-841.07 108.66,-220.42 191.11,-462.53 239.06,-703.2 -138.42,-21.94 -270.67,-85.57 -362.49,-193.8 -124.15,-146.32 -165.01,-355.69 -50.55,-606.97 44.27,-97.31 67.91,-142.69 26.87,-253.94 -46.03,-124.8 -61.74,-253.28 -20.9,-382.65 -312.73,-214.61 -723.82,-258.79 -1080.89,-136.94 -55.91,106.72 -97.37,221.76 -130.12,337.59 -5.72,20.31 -13.41,38.61 -25.11,56.74 86.11,2.55 181.44,-19.79 244.42,-81.37 74.93,-72.88 185.74,41.05 110.81,113.92 -146.98,143.74 -383.19,153.27 -567.85,85.81 -7.12,0.32 -14.19,0.34 -21.19,0.05 -184.03,68.13 -396.67,57.22 -542.98,-85.86 -74.93,-72.87 35.88,-186.8 110.81,-113.92 66.53,65.06 157.73,87.7 248.34,80.11 -34.07,-76.07 -4.66,-211.85 10.69,-295.82 -25.86,-14.9 -52.15,-28.77 -78.82,-41.61 -344.53,226.99 -718.77,211.72 -1039.45,-17.86z"/>
   <path class="fil2" d="M2699.55 8902.39c62.34,0 112.88,50.54 112.88,112.88 0,62.34 -50.54,112.88 -112.88,112.88 -62.34,0 -112.88,-50.54 -112.88,-112.88 0,-62.34 50.54,-112.88 112.88,-112.88zm0 -637.47c62.34,0 112.88,50.54 112.88,112.88 0,62.34 -50.54,112.88 -112.88,112.88 -62.34,0 -112.88,-50.54 -112.88,-112.88 0,-62.34 50.54,-112.88 112.88,-112.88zm318.74 956.2c62.34,0 112.88,50.54 112.88,112.89 0,62.34 -50.54,112.88 -112.88,112.88 -62.35,0 -112.89,-50.54 -112.89,-112.88 0,-62.35 50.54,-112.89 112.89,-112.89zm0 -637.47c62.34,0 112.88,50.54 112.88,112.89 0,62.34 -50.54,112.88 -112.88,112.88 -62.35,0 -112.89,-50.54 -112.89,-112.88 0,-62.35 50.54,-112.89 112.89,-112.89zm0 -1274.94c62.34,0 112.88,50.54 112.88,112.88 0,62.34 -50.54,112.88 -112.88,112.88 -62.35,0 -112.89,-50.54 -112.89,-112.88 0,-62.34 50.54,-112.88 112.89,-112.88zm0 637.47c62.34,0 112.88,50.54 112.88,112.89 0,62.34 -50.54,112.88 -112.88,112.88 -62.35,0 -112.89,-50.54 -112.89,-112.88 0,-62.35 50.54,-112.89 112.89,-112.89zm318.74 1593.67c62.34,0 112.88,50.54 112.88,112.89 0,62.34 -50.54,112.88 -112.88,112.88 -62.35,0 -112.89,-50.54 -112.89,-112.88 0,-62.35 50.54,-112.89 112.89,-112.89zm0 -637.47c62.34,0 112.88,50.54 112.88,112.88 0,62.34 -50.54,112.88 -112.88,112.88 -62.35,0 -112.89,-50.54 -112.89,-112.88 0,-62.34 50.54,-112.88 112.89,-112.88zm0 -1912.41c62.34,0 112.88,50.54 112.88,112.89 0,62.34 -50.54,112.88 -112.88,112.88 -62.35,0 -112.89,-50.54 -112.89,-112.88 0,-62.35 50.54,-112.89 112.89,-112.89zm0 637.47c62.34,0 112.88,50.54 112.88,112.89 0,62.34 -50.54,112.88 -112.88,112.88 -62.35,0 -112.89,-50.54 -112.89,-112.88 0,-62.35 50.54,-112.89 112.89,-112.89zm0 637.47c62.34,0 112.88,50.54 112.88,112.88 0,62.34 -50.54,112.88 -112.88,112.88 -62.35,0 -112.89,-50.54 -112.89,-112.88 0,-62.34 50.54,-112.88 112.89,-112.88zm2231.14 318.73c62.34,0 112.88,50.54 112.88,112.89 0,62.34 -50.54,112.88 -112.88,112.88 -62.35,0 -112.89,-50.54 -112.89,-112.88 0,-62.35 50.54,-112.89 112.89,-112.89zm-637.47 637.47c62.34,0 112.88,50.54 112.88,112.89 0,62.34 -50.54,112.88 -112.88,112.88 -62.34,0 -112.88,-50.54 -112.88,-112.88 0,-62.35 50.54,-112.89 112.88,-112.89zm0 -637.47c62.34,0 112.88,50.54 112.88,112.89 0,62.34 -50.54,112.88 -112.88,112.88 -62.34,0 -112.88,-50.54 -112.88,-112.88 0,-62.35 50.54,-112.89 112.88,-112.89zm-40.41 -1901.87c62.34,0 112.88,50.54 112.88,112.89 0,62.34 -50.54,112.88 -112.88,112.88 -62.34,0 -112.89,-50.54 -112.89,-112.88 0,-62.34 50.54,-112.89 112.89,-112.89zm-8.78 591.79c62.34,0 112.88,50.54 112.88,112.89 0,62.34 -50.54,112.88 -112.88,112.88 -62.34,0 -112.89,-50.54 -112.89,-112.88 0,-62.34 50.54,-112.89 112.89,-112.89zm49.19 672.61c62.34,0 112.88,50.54 112.88,112.89 0,62.34 -50.54,112.88 -112.88,112.88 -62.34,0 -112.88,-50.54 -112.88,-112.88 0,-62.35 50.54,-112.89 112.88,-112.89zm318.74 956.2c62.34,0 112.88,50.54 112.88,112.88 0,62.34 -50.54,112.88 -112.88,112.88 -62.34,0 -112.88,-50.54 -112.88,-112.88 0,-62.34 50.54,-112.88 112.88,-112.88zm-15.81 -1912.41c62.34,0 112.88,50.54 112.88,112.89 0,62.34 -50.54,112.88 -112.88,112.88 -62.34,0 -112.88,-50.54 -112.88,-112.88 0,-62.34 50.54,-112.89 112.88,-112.89zm15.81 637.47c62.34,0 112.88,50.54 112.88,112.89 0,62.34 -50.54,112.88 -112.88,112.88 -62.34,0 -112.88,-50.54 -112.88,-112.88 0,-62.35 50.54,-112.89 112.88,-112.89zm0 637.47c62.34,0 112.88,50.54 112.88,112.88 0,62.34 -50.54,112.88 -112.88,112.88 -62.34,0 -112.88,-50.54 -112.88,-112.88 0,-62.34 50.54,-112.88 112.88,-112.88zm-956.2 956.2c62.34,0 112.88,50.54 112.88,112.89 0,62.34 -50.54,112.88 -112.88,112.88 -62.34,0 -112.88,-50.54 -112.88,-112.88 0,-62.35 50.54,-112.89 112.88,-112.89zm0 -637.47c62.34,0 112.88,50.54 112.88,112.89 0,62.34 -50.54,112.88 -112.88,112.88 -62.34,0 -112.88,-50.54 -112.88,-112.88 0,-62.35 50.54,-112.89 112.88,-112.89zm15.81 -1283.72c62.34,0 112.88,50.54 112.88,112.89 0,62.34 -50.54,112.88 -112.88,112.88 -62.34,0 -112.89,-50.54 -112.89,-112.88 0,-62.34 50.54,-112.89 112.89,-112.89zm-15.81 646.26c62.34,0 112.88,50.54 112.88,112.89 0,62.34 -50.54,112.88 -112.88,112.88 -62.34,0 -112.88,-50.54 -112.88,-112.88 0,-62.35 50.54,-112.89 112.88,-112.89zm318.74 1593.67c62.34,0 112.88,50.54 112.88,112.89 0,62.34 -50.54,112.88 -112.88,112.88 -62.35,0 -112.89,-50.54 -112.89,-112.88 0,-62.35 50.54,-112.89 112.89,-112.89zm0 -637.47c62.34,0 112.88,50.54 112.88,112.88 0,62.34 -50.54,112.88 -112.88,112.88 -62.35,0 -112.89,-50.54 -112.89,-112.88 0,-62.34 50.54,-112.88 112.89,-112.88zm0 -1274.94c62.34,0 112.88,50.54 112.88,112.89 0,62.34 -50.54,112.88 -112.88,112.88 -62.35,0 -112.89,-50.54 -112.89,-112.88 0,-62.35 50.54,-112.89 112.89,-112.89zm0 637.47c62.34,0 112.88,50.54 112.88,112.88 0,62.34 -50.54,112.88 -112.88,112.88 -62.35,0 -112.89,-50.54 -112.89,-112.88 0,-62.34 50.54,-112.88 112.89,-112.88zm-956.2 956.2c62.34,0 112.88,50.54 112.88,112.89 0,62.34 -50.54,112.88 -112.88,112.88 -62.34,0 -112.88,-50.54 -112.88,-112.88 0,-62.35 50.54,-112.89 112.88,-112.89zm0 -637.47c62.34,0 112.88,50.54 112.88,112.89 0,62.34 -50.54,112.88 -112.88,112.88 -62.34,0 -112.88,-50.54 -112.88,-112.88 0,-62.35 50.54,-112.89 112.88,-112.89zm0 -1274.94c62.34,0 112.88,50.54 112.88,112.88 0,62.34 -50.54,112.88 -112.88,112.88 -62.34,0 -112.88,-50.54 -112.88,-112.88 0,-62.34 50.54,-112.88 112.88,-112.88zm0 637.47c62.34,0 112.88,50.54 112.88,112.89 0,62.34 -50.54,112.88 -112.88,112.88 -62.34,0 -112.88,-50.54 -112.88,-112.88 0,-62.35 50.54,-112.89 112.88,-112.89zm318.74 956.2c62.34,0 112.88,50.54 112.88,112.88 0,62.34 -50.54,112.88 -112.88,112.88 -62.35,0 -112.89,-50.54 -112.89,-112.88 0,-62.34 50.54,-112.88 112.89,-112.88zm0 -1274.94c62.34,0 112.88,50.54 112.88,112.89 0,62.34 -50.54,112.88 -112.88,112.88 -62.35,0 -112.89,-50.54 -112.89,-112.88 0,-62.35 50.54,-112.89 112.89,-112.89zm-859.43 -785.19c-69.45,-22.29 -137.64,-53.66 -203.89,-93.83 -3.74,11.22 -5.77,23.23 -5.77,35.7 0,62.34 50.54,112.88 112.89,112.88 41.07,0 77.03,-21.95 96.78,-54.76zm653.56 -56.6c-65.31,32.64 -131.33,56.95 -197.54,73.12 20.69,23.44 50.95,38.24 84.67,38.24 61.83,0 112.04,-49.72 112.86,-111.35zm1814.42 110.38c3.62,-31.33 10.2,-62.74 20.13,-94.21 -41.99,-28.81 -85.77,-54.53 -130.93,-77.21 -10.74,17.28 -16.95,37.67 -16.95,59.51 0,62.34 50.54,112.88 112.89,112.88 5.04,0 10.01,-0.33 14.87,-0.98zm-22.73 638.17c9.78,-31.2 22.02,-63.13 36.89,-95.79 18.76,-41.23 33.81,-73.14 41.81,-104.69 -19.37,-15.64 -44.02,-25 -70.85,-25 -62.35,0 -112.89,50.54 -112.89,112.88 0,59.7 46.35,108.57 105.03,112.6zm118.93 545.05c-10.95,-10.76 -21.46,-22.05 -31.49,-33.87 -25.59,-30.15 -47.62,-63 -65.5,-98.32 -4.61,-0.57 -9.31,-0.87 -14.08,-0.87 -62.35,0 -112.89,50.54 -112.89,112.89 0,62.34 50.54,112.88 112.89,112.88 55.45,0 101.56,-39.99 111.07,-92.7zm275.08 389.08c13.07,-45.31 25.01,-90.82 35.74,-136.39 -17.58,-39.49 -57.15,-67.02 -103.17,-67.02 -62.34,0 -112.88,50.54 -112.88,112.88 0,62.34 50.54,112.88 112.88,112.88 25.28,0 48.61,-8.31 67.43,-22.35zm-477.29 932.28c46.09,-55.54 89.17,-113.75 129.02,-172.97 -11.85,-4.22 -24.6,-6.53 -37.89,-6.53 -62.35,0 -112.89,50.54 -112.89,112.89 0,24.92 8.08,47.94 21.76,66.61zm-329.54 300.68c60.74,-39.02 118.78,-84.84 173.81,-135.6 -19.52,-16.14 -44.57,-25.84 -71.87,-25.84 -62.34,0 -112.88,50.54 -112.88,112.89 0,17.38 3.93,33.84 10.95,48.55zm-1227.15 50.51c45.91,-12.47 92.56,-20.84 139.45,-25.14 17.17,-19.81 27.57,-45.65 27.57,-73.92 0,-62.35 -50.54,-112.89 -112.88,-112.89 -62.35,0 -112.89,50.54 -112.89,112.89 0,42.72 23.74,79.89 58.74,99.06zm-1569.69 -1164.07c23.9,71.17 50.56,141.46 79.75,210.23 37.48,-18.36 63.29,-56.87 63.29,-101.42 0,-62.35 -50.54,-112.89 -112.88,-112.89 -10.45,0 -20.56,1.43 -30.16,4.08zm378.1 -956.46c11.64,77.68 8.15,151.86 -9.02,220.13 52.71,-9.52 92.7,-55.62 92.7,-111.07 0,-52.24 -35.49,-96.19 -83.68,-109.06zm-41.8 -640.59c-4.19,65.31 -19.78,130.03 -43.3,193.79 -1.71,4.63 -3.31,9.15 -4.8,13.58 17.53,11.2 38.35,17.69 60.7,17.69 62.34,0 112.88,-50.54 112.88,-112.88 0,-62.35 -50.54,-112.89 -112.88,-112.89 -4.26,0 -8.46,0.24 -12.6,0.7zm1287.54 1274.24c62.34,0 112.88,50.54 112.88,112.88 0,62.34 -50.54,112.88 -112.88,112.88 -62.35,0 -112.89,-50.54 -112.89,-112.88 0,-62.34 50.54,-112.88 112.89,-112.88z"/>
   <path class="fil2" d="M5775.26 2055.97c272.05,-26.67 534.99,86.28 709.17,303.56 115.46,-57.23 308.96,-119.76 429.15,-141.96 -40.53,-200.35 -93.11,-424.22 -213,-593.55 -439.76,2.36 -698.87,92.42 -997.51,250.96 24.09,54.7 56.96,123.07 72.19,180.98zm-71.42 3321.58c-156.82,1.25 -284.14,-182.27 -284.36,-409.9 -0.19,-227.59 126.73,-413.14 283.58,-414.41 156.85,-1.26 284.16,182.24 284.38,409.86 0.22,227.61 -126.76,413.17 -283.6,414.44zm-2907.58 -452.22c0.19,227.61 -126.78,413.19 -283.63,414.44 -156.83,1.28 -284.17,-182.24 -284.38,-409.88 -0.22,-227.61 126.74,-413.15 283.59,-414.41 156.83,-1.26 284.14,182.25 284.42,409.85zm3210.9 -1212.25c-359.64,69.41 -719.63,-112.22 -882.66,-451.93 -427.61,209.97 -1026.44,329.77 -1309.36,-172.76 -183.13,-325.29 -115.05,-812.86 -11.42,-1153.77 -292.01,17.71 -592.01,52.14 -892.98,106.04 -22.79,4.01 -42.77,2.43 -63.9,-8.93 -367.01,-197.72 -783.57,-399.22 -1206.68,-389.05 -356.11,327.58 -377.89,881.86 -256.34,1325.35 41.02,-42.19 84.78,-78.67 126.83,-98.06 79.87,-36.86 116.26,11.02 68.44,89.39 -102.09,167.35 -172.57,255.97 -254.43,436.89 -160.37,354.24 -242.12,766.42 -226.87,1160.36 124.23,4.34 164.2,5.47 280.56,19.48 138.48,16.69 117.2,152.94 -29.36,151.1 -105.88,-1.35 -130.32,6.61 -237.52,7.28 19.18,165.61 56.1,327.39 110.31,482.16 58.2,-7.76 116.45,-14.24 174.52,-19.59 101.95,-9.44 103.94,88.45 39.5,115.28 -49.31,20.52 -100.85,39.54 -153.9,57.07 71.76,163.59 163.83,317.1 274.35,455.91 57.59,-22.61 116.66,-44.4 177.57,-65.8 89.4,-31.43 153.36,93.4 61.98,139.36 -40.91,20.57 -81.73,40.7 -122.44,60.73 216.17,225.61 554.28,388.82 933.43,502.8 -100.54,-148.91 -158.2,-321.33 -236.26,-482.15 -34.73,-63.85 -21.96,-145.44 35.02,-195.3 415.69,-364.41 1073.1,-459.27 1462.27,-15.3 118.89,135.63 200.73,314.55 226.41,533.04 85.86,-192.42 231.69,-387.3 468.14,-363.72 122.96,12.23 267.04,87.58 291.45,218.99 15.5,83.45 -21.56,160.35 -89.17,209.51 -37.34,27.16 -72.99,59.57 -106.83,97.44 268.77,-51.93 551.9,-25.42 804.63,80.65 487.53,-121.34 956.92,-335.62 1246.52,-699.8 -42.36,-16.06 -84.81,-32.22 -127.38,-48.82 -95.11,-37.06 -42.61,-167.44 49.2,-144.66 62.58,15.52 123.34,31.58 182.72,48.61 97.6,-148.72 175.5,-310.36 232.27,-480.07 -54.41,-12.39 -107.42,-26.42 -158.37,-42.17 -66.59,-20.56 -73.37,-118.22 28.99,-118.54 58.3,-0.19 116.89,0.71 175.52,2.87 40.09,-159.25 62.31,-323.83 66.56,-490.58 -106.78,9.56 -213.05,20.52 -318.33,31.93 -145.79,15.79 -179.19,-117.87 -42.8,-147.64 114.61,-25.04 235.51,-46.52 358.78,-62.67 -4,-77.79 -11.83,-155.31 -23.44,-232.25 -206.96,121.33 -434.23,163.93 -659.31,61.83 -189.15,-85.78 -389.8,-314.93 -466.24,-510.51zm-1626.59 1524.5c170.39,110.54 176.39,325.82 8.84,441.93 -133.31,92.4 -338.62,93.72 -474.21,5.74 -170.4,-110.54 -176.42,-325.74 -8.81,-441.9 133.27,-92.39 338.6,-93.71 474.18,-5.78zm1877.37 2836.82c193.52,-43.43 384.97,-183.52 480.27,-443.51 75,-204.56 76.93,-448.89 0.98,-653.52 -185.61,-500.08 -747.57,-494.09 -936.88,-221.94 -65.97,94.82 -76.69,206.26 -48.04,316.2 49.7,190.65 86.53,226 -5.67,417.69 -125.48,261.06 -35.96,453.19 134.01,543.16 113.4,60.01 251.33,69.76 375.32,41.93zm-3872.83 -41.93c169.98,-89.96 259.5,-282.09 134.01,-543.16 -92.2,-191.69 -55.37,-227.03 -5.67,-417.69 28.65,-109.94 17.93,-221.36 -48.04,-316.2 -189.3,-272.15 -751.26,-278.13 -936.88,221.95 -75.94,204.62 -74.01,448.96 0.99,653.52 123.92,338.08 522.23,578.01 855.59,401.58zm1996.28 1898.51c-52.43,-21.26 -106.79,-35.51 -161.86,-42.75l0 501c302.67,165.06 670.42,173.56 995.33,73.09 701.33,-216.85 955.2,-755.25 966.18,-1449.46l-374.7 196.62c-292.46,488.78 -815.1,968.8 -1424.95,721.5zm-1189.85 -12.71c-311.41,-135.24 -558.98,-422.73 -730.15,-708.8l-374.69 -196.61c10.82,683.67 263.56,1232.94 953.57,1449.82 331.69,104.25 704.17,88.64 1007.94,-89.32l0 -485.13c-55.07,7.24 -109.44,21.49 -161.87,42.75 -239.95,97.3 -475.26,82.63 -694.8,-12.71z"/>
   <path class="fil3" d="M6647.65 2773.64c208.3,15.57 369.66,189.66 369.66,398.76 0,110.41 -44.76,210.39 -117.13,282.75 -135.73,135.72 -348.83,155.31 -507.18,47.93 -64.03,59.57 -137.98,109.02 -219.99,145.41 210.39,412.42 500.15,549.16 832.04,377.37 290.87,-150.56 593.18,-518.3 687.33,-847.09 108.09,-377.38 -18.83,-714.24 -404.99,-788.01 -196.76,-37.61 -442.76,2.74 -715.6,127 38.43,78.81 63.85,166.18 75.86,255.88zm210.3 398.76c0,-118.48 -86.41,-219.45 -203.22,-237.64 -7.44,163.09 -59.69,315.02 -155.21,447.54 93.43,52.56 212.01,36.15 287.99,-39.83 43.52,-43.52 70.44,-103.66 70.44,-170.07zm-1622.27 -123.24c73.73,303.09 346.35,513.12 651.97,496.17 541.26,-29.92 809.95,-710.47 420.74,-1116.55 -457.81,-477.69 -1228.19,-18.53 -1072.71,620.38zm-301.03 -763.66c-139.15,139.16 -59.88,378.46 133.66,407.85 33.07,-146.59 107.05,-284.08 219.24,-394.39 -90.15,-105.85 -253.85,-112.5 -352.9,-13.45zm141.56 797.91c-20.44,-76.36 -29.46,-154.46 -27.51,-231.85 -324.43,-45.5 -459.54,-445.91 -226.74,-678.74 166.75,-166.75 439.38,-152.22 589.3,26.29 58.75,-38.7 124.32,-71.35 196.57,-96.46 -112.79,-294.37 -293.07,-654.79 -560.48,-826.69 -591.07,-379.79 -996.51,361 -1113.27,863 -70.3,302.11 -86.29,640.56 35.93,857.65 232.9,413.7 769.72,258.06 1106.19,86.81zm1061.94 5313.43c-47.52,192.73 -115.43,384.37 -199.87,564.17l240.52 -126.21c-5.47,-140.81 -19.48,-287.23 -40.65,-437.96zm-3808.72 564.17c-84.44,-179.8 -152.35,-371.43 -199.86,-564.15 -21.17,150.73 -35.17,297.14 -40.65,437.95l240.51 126.2z"/>
   <path class="fil4" d="M3092.09 6114.49c-178.48,-53.39 -360.87,-94.96 -543.98,-129.13 99.69,220.61 164.66,415.91 363.25,570.31 83.53,-136.93 141.92,-285.54 180.73,-441.19zm279.52 -53.25c43.05,-123.47 73.2,-257.45 73.18,-388.86 -262.18,-89.25 -586.42,-36.13 -867.02,176.85 268.35,50.24 538.17,116.07 793.83,212zm525.42 448.44c-189.93,-162.65 -436.82,-272.87 -672.13,-352.85 -42.65,167.62 -107.03,328.42 -197.65,475.77 297.64,165.36 620.04,92 869.78,-122.92zm-396.19 -396.55c154.89,66.56 306.99,148.48 440,252.72 -22.75,-299.69 -162.69,-513.14 -358.96,-630.26 -7.58,129.18 -38.04,255.78 -81.03,377.53zm1104.57 -2.19c-340.27,-125.46 -489.16,600.36 -516.38,873.22 -9.25,92.71 130.97,56.71 145.57,4.53 75.17,-268.68 206.04,-582.36 436.69,-750.11 51.84,-37.7 28.68,-92.78 -65.88,-127.65z"/>
   <path class="fil5" d="M4150.99 5619.66c130.91,-1.29 235.58,-73.08 233.76,-160.41 -1.79,-87.35 -109.37,-157.13 -240.27,-155.91 -130.92,1.23 -235.57,73.07 -233.8,160.39 1.81,87.37 109.41,157.15 240.31,155.93z"/>
   <path class="fil2" d="M2537.13 4780.35c-0.37,-66.61 -46.53,-120.5 -103.15,-120.34 -56.61,0.2 -102.2,54.34 -101.84,120.97 0.38,66.63 46.55,120.51 103.17,120.35 56.59,-0.2 102.21,-54.35 101.83,-120.98zm2987.39 46.37c0.37,66.64 46.55,120.52 103.15,120.35 56.59,-0.17 102.21,-54.33 101.85,-120.96 -0.38,-66.61 -46.55,-120.46 -103.15,-120.32 -56.62,0.15 -102.22,54.29 -101.85,120.93z"/>
  </g>
 </g>
</svg>
